<svg xmlns="http://www.w3.org/2000/svg" width="23" height="23" viewBox="0 0 23 23">
  <g id="Group_89" data-name="Group 89" transform="translate(0 -0.139)">
    <circle id="Ellipse_2" data-name="Ellipse 2" cx="11.5" cy="11.5" r="11.5" transform="translate(0 0.139)" fill="#bababa"/>
    <path id="Icon_awesome-instagram" data-name="Icon awesome-instagram" d="M7.315,5.8a3.752,3.752,0,1,0,3.752,3.752A3.746,3.746,0,0,0,7.315,5.8Zm0,6.191A2.439,2.439,0,1,1,9.754,9.555a2.444,2.444,0,0,1-2.439,2.439ZM12.1,5.649a.875.875,0,1,1-.875-.875A.873.873,0,0,1,12.1,5.649Zm2.485.888A4.331,4.331,0,0,0,13.4,3.471a4.359,4.359,0,0,0-3.066-1.182c-1.208-.069-4.83-.069-6.038,0A4.353,4.353,0,0,0,1.228,3.468,4.345,4.345,0,0,0,.046,6.534c-.069,1.208-.069,4.83,0,6.038a4.331,4.331,0,0,0,1.182,3.066A4.365,4.365,0,0,0,4.295,16.82c1.208.069,4.83.069,6.038,0A4.331,4.331,0,0,0,13.4,15.638a4.359,4.359,0,0,0,1.182-3.066C14.649,11.364,14.649,7.746,14.581,6.537ZM13.02,13.868a2.47,2.47,0,0,1-1.391,1.391,16.128,16.128,0,0,1-4.314.294A16.254,16.254,0,0,1,3,15.26,2.47,2.47,0,0,1,1.61,13.868a16.128,16.128,0,0,1-.294-4.314A16.254,16.254,0,0,1,1.61,5.241,2.47,2.47,0,0,1,3,3.85a16.128,16.128,0,0,1,4.314-.294,16.254,16.254,0,0,1,4.314.294A2.47,2.47,0,0,1,13.02,5.241a16.128,16.128,0,0,1,.294,4.314A16.119,16.119,0,0,1,13.02,13.868Z" transform="translate(4.159 2.018)" fill="#484848"/>
  </g>
</svg>
