<svg xmlns="http://www.w3.org/2000/svg" width="23" height="23" viewBox="0 0 23 23">
  <g id="Group_90" data-name="Group 90" transform="translate(-0.071 -0.468)">
    <circle id="Ellipse_1" data-name="Ellipse 1" cx="11.5" cy="11.5" r="11.5" transform="translate(0.071 0.468)" fill="#bababa"/>
    <path id="Icon_awesome-linkedin-in" data-name="Icon awesome-linkedin-in" d="M2.838,12.68H.209V4.215H2.838ZM1.522,3.06A1.53,1.53,0,1,1,3.045,1.523,1.535,1.535,0,0,1,1.522,3.06Zm11.154,9.62H10.054V8.559c0-.982-.02-2.242-1.367-2.242-1.367,0-1.576,1.067-1.576,2.171V12.68H4.485V4.215H7.006V5.369h.037A2.762,2.762,0,0,1,9.53,4c2.66,0,3.15,1.752,3.15,4.028v4.65Z" transform="translate(5.232 5.255)" fill="#484848"/>
  </g>
</svg>
